<svg version="1.1" xmlns="http://www.w3.org/2000/svg" viewBox="0 0 710.4265747070312 635.7151715721935" width="710.4265747070312" height="635.7151715721935">
  <!-- svg-source:excalidraw -->
  
  <defs>
    <style>
      @font-face {
        font-family: "Virgil";
        src: url("https://excalidraw.com/Virgil.woff2");
      }
      @font-face {
        font-family: "Cascadia";
        src: url("https://excalidraw.com/Cascadia.woff2");
      }
    </style>
  </defs>
  <rect x="0" y="0" width="710.4265747070312" height="635.7151715721935" fill="#ffffff"></rect><g stroke-linecap="round"><g transform="translate(73.98329261810841 84.6822509765625) rotate(0 -0.9656509347788642 264.88966950045904)"><path d="M0.54 0.68 C0.37 88.61, -1.33 440.6, -1.63 528.58 M-0.64 -0.01 C-0.9 87.98, -2.28 441.54, -2.47 529.79" stroke="#000000" stroke-width="1" fill="none"></path></g><g transform="translate(73.98329261810841 84.6822509765625) rotate(0 -0.9656509347788642 264.88966950045904)"><path d="M-11.51 501.93 C-10.88 509.51, -8.4 517.27, -3.88 529.49 M-13.32 502.06 C-10.63 510.06, -6.51 517.76, -3.21 529.84" stroke="#000000" stroke-width="1" fill="none"></path></g><g transform="translate(73.98329261810841 84.6822509765625) rotate(0 -0.9656509347788642 264.88966950045904)"><path d="M9.01 501.99 C4.52 509.65, 1.88 517.39, -3.88 529.49 M7.2 502.13 C4.04 510.14, 2.32 517.82, -3.21 529.84" stroke="#000000" stroke-width="1" fill="none"></path></g></g><g stroke-linecap="round"><g transform="translate(338.364013671875 134.20718383789062) rotate(0 -0.6535470317770091 245.43651417754592)"><path d="M-0.08 -0.63 C0.11 81.22, 0.12 409.43, 0.28 491.51 M-1.58 1.65 C-1.45 83.11, -0.88 408.32, -0.53 489.72" stroke="#000000" stroke-width="1" fill="none"></path></g><g transform="translate(338.364013671875 134.20718383789062) rotate(0 -0.6535470317770091 245.43651417754592)"><path d="M-11.93 462.02 C-7.37 469.4, -4.43 476.26, -0.84 489.48 M-10.92 461.51 C-9.04 468.96, -5.42 475.7, -0.08 489.48" stroke="#000000" stroke-width="1" fill="none"></path></g><g transform="translate(338.364013671875 134.20718383789062) rotate(0 -0.6535470317770091 245.43651417754592)"><path d="M8.59 461.96 C8.5 469.34, 6.78 476.21, -0.84 489.48 M9.6 461.45 C6.62 469.02, 5.38 475.78, -0.08 489.48" stroke="#000000" stroke-width="1" fill="none"></path></g></g><g stroke-linecap="round"><g transform="translate(74.56114675737922 133.80811251066626) rotate(0 131.2552328263875 -1.3308903234079423)"><path d="M-0.56 0.16 C43 -0.14, 217.01 -2.44, 260.91 -2.82 M1.35 -0.8 C45.31 -0.82, 219.54 -0.81, 263.07 -1.37" stroke="#000000" stroke-width="1" fill="none"></path></g><g transform="translate(74.56114675737922 133.80811251066626) rotate(0 131.2552328263875 -1.3308903234079423)"><path d="M235.2 7.3 C242.12 7.89, 250.66 2.69, 263.69 -1.64 M233.98 8.51 C244.81 4.62, 252.95 1.26, 262.71 -0.46" stroke="#000000" stroke-width="1" fill="none"></path></g><g transform="translate(74.56114675737922 133.80811251066626) rotate(0 131.2552328263875 -1.3308903234079423)"><path d="M235.09 -13.22 C241.86 -7.26, 250.43 -7.08, 263.69 -1.64 M233.87 -12.01 C244.94 -9.17, 253.11 -5.78, 262.71 -0.46" stroke="#000000" stroke-width="1" fill="none"></path></g></g><g transform="translate(10 10) rotate(0 80 35.5)"><text x="0" y="25.5" font-family="Virgil, Segoe UI Emoji" font-size="28px" fill="#000000" text-anchor="start" style="white-space: pre;" direction="ltr">Main: </text><text x="0" y="61" font-family="Virgil, Segoe UI Emoji" font-size="28px" fill="#000000" text-anchor="start" style="white-space: pre;" direction="ltr">TCP Server</text></g><g transform="translate(278.72723388671875 68.06546020507812) rotate(0 78 18)"><text x="0" y="25" font-family="Virgil, Segoe UI Emoji" font-size="28px" fill="#000000" text-anchor="start" style="white-space: pre;" direction="ltr">Heart beat</text></g><g stroke-linecap="round" transform="translate(319.377685546875 214.70611572265625) rotate(0 15.6695556640625 15.6695556640625)"><path d="M9.05 1.67 C11.74 0.17, 16.23 -0.11, 19.57 0.62 C22.91 1.34, 27.08 3.21, 29.08 5.99 C31.07 8.77, 32.1 13.83, 31.54 17.32 C30.98 20.81, 28.12 24.61, 25.73 26.94 C23.34 29.28, 20.55 31.27, 17.2 31.35 C13.85 31.43, 8.48 29.23, 5.64 27.41 C2.81 25.58, 0.87 23.39, 0.18 20.41 C-0.51 17.42, -0.32 12.84, 1.48 9.5 C3.29 6.17, 9.31 1.72, 11.01 0.42 C12.72 -0.89, 11.83 1.44, 11.71 1.68 M22.07 1.36 C25.02 2.68, 27.02 6.19, 28.37 8.86 C29.72 11.54, 30.68 14.37, 30.17 17.41 C29.66 20.46, 27.6 24.91, 25.3 27.13 C23.01 29.36, 19.48 30.82, 16.39 30.76 C13.29 30.69, 9.5 28.93, 6.74 26.75 C3.98 24.57, 0.42 20.72, -0.17 17.69 C-0.76 14.65, 1.35 11.11, 3.21 8.54 C5.07 5.96, 7.78 3.24, 11 2.23 C14.21 1.21, 20.59 2.8, 22.48 2.44 C24.37 2.07, 22.77 0.17, 22.33 0.03" stroke="none" stroke-width="0" fill="#000000"></path><path d="M8.62 1.74 C11.49 0.21, 16.19 0.22, 19.52 0.98 C22.85 1.73, 26.54 3.55, 28.6 6.29 C30.66 9.02, 32.19 14.08, 31.88 17.37 C31.58 20.66, 29.07 23.67, 26.76 26 C24.45 28.34, 21.26 30.99, 18.02 31.37 C14.78 31.76, 10.25 30.3, 7.33 28.32 C4.41 26.33, 1.45 22.72, 0.51 19.46 C-0.43 16.2, -0.07 12.01, 1.7 8.74 C3.47 5.48, 9.44 1.33, 11.12 -0.12 C12.8 -1.58, 11.67 -0.45, 11.8 0.01 M10.11 -0.06 C12.63 -1.57, 15.65 -1.42, 18.81 -0.16 C21.96 1.1, 26.79 4.56, 29.02 7.49 C31.25 10.42, 32.69 14.15, 32.18 17.43 C31.68 20.7, 28.32 24.64, 25.99 27.15 C23.65 29.66, 21.48 32.45, 18.16 32.49 C14.84 32.53, 8.81 29.65, 6.08 27.39 C3.34 25.12, 2.56 21.93, 1.76 18.9 C0.95 15.88, -0.2 12.07, 1.25 9.23 C2.7 6.4, 9.09 3.25, 10.44 1.88 C11.8 0.52, 9.61 0.93, 9.4 1.04" stroke="#000000" stroke-width="1" fill="none"></path></g><g stroke-linecap="round" transform="translate(320.686767578125 314.5163269042969) rotate(0 15.6695556640625 15.6695556640625)"><path d="M21.29 1.16 C24.51 2.37, 29.06 5.65, 30.65 8.61 C32.23 11.56, 31.61 15.55, 30.8 18.9 C29.98 22.25, 28.53 26.46, 25.75 28.69 C22.96 30.93, 17.58 32.4, 14.07 32.29 C10.56 32.18, 6.91 30.35, 4.69 28.02 C2.47 25.69, 1.1 21.79, 0.73 18.31 C0.35 14.84, 0.85 9.98, 2.43 7.17 C4.02 4.37, 6.62 2.34, 10.24 1.48 C13.87 0.62, 21.82 1.61, 24.19 2.01 C26.56 2.4, 24.61 3.57, 24.46 3.85 M22.54 1.2 C25.76 2.02, 28.2 4.52, 29.85 7.53 C31.5 10.55, 33.35 16.02, 32.44 19.3 C31.54 22.59, 27.25 25.27, 24.43 27.25 C21.6 29.22, 18.77 30.95, 15.49 31.14 C12.21 31.33, 7.31 30.59, 4.74 28.39 C2.18 26.19, 0.35 21.5, 0.08 17.92 C-0.19 14.34, 1.19 9.92, 3.14 6.9 C5.09 3.89, 8.52 0.83, 11.8 -0.19 C15.08 -1.2, 21.41 0.36, 22.82 0.8 C24.22 1.23, 20.35 2.11, 20.23 2.43" stroke="none" stroke-width="0" fill="#000000"></path><path d="M12.26 1.13 C15.39 0.31, 19.53 0.89, 22.6 2.36 C25.67 3.84, 29.2 7.23, 30.7 9.98 C32.2 12.72, 32.72 15.86, 31.62 18.85 C30.52 21.84, 27.06 25.9, 24.11 27.9 C21.17 29.89, 17.19 30.89, 13.94 30.8 C10.69 30.72, 6.89 29.75, 4.6 27.37 C2.31 24.99, 0.39 19.96, 0.18 16.51 C-0.04 13.07, 0.96 9.5, 3.3 6.69 C5.64 3.89, 11.78 0.61, 14.2 -0.3 C16.63 -1.21, 17.69 1.07, 17.85 1.24 M11.24 -0.73 C14.61 -2.13, 19.69 -0.8, 22.63 0.97 C25.56 2.73, 27.39 6.65, 28.84 9.84 C30.29 13.04, 31.68 16.98, 31.33 20.15 C30.97 23.33, 29.39 27.12, 26.72 28.9 C24.04 30.67, 18.68 31.21, 15.26 30.8 C11.84 30.38, 8.8 28.46, 6.18 26.42 C3.56 24.38, 0.13 21.54, -0.44 18.54 C-1.02 15.53, 0.94 11.27, 2.75 8.39 C4.56 5.5, 9.21 2.45, 10.43 1.23 C11.65 0.01, 9.83 0.89, 10.05 1.08" stroke="#000000" stroke-width="1" fill="none"></path></g><g stroke-linecap="round" transform="translate(322.0025634765625 414.5689392089844) rotate(0 15.6695556640625 15.6695556640625)"><path d="M11.62 -0.08 C14.64 -0.87, 19.85 0.98, 22.9 2.82 C25.96 4.65, 28.8 8.05, 29.94 10.94 C31.08 13.84, 30.66 17.21, 29.75 20.19 C28.84 23.18, 27.17 26.99, 24.47 28.86 C21.76 30.72, 17.06 31.76, 13.52 31.39 C9.97 31.01, 5.37 29.24, 3.21 26.62 C1.06 23.99, 0.39 19.23, 0.58 15.64 C0.77 12.05, 2.12 7.68, 4.35 5.08 C6.58 2.48, 12.07 0.9, 13.96 0.06 C15.84 -0.79, 15.69 -0.34, 15.64 -0.01 M12.15 0.33 C15.37 -0.8, 19.95 -0.46, 22.92 1.1 C25.89 2.66, 28.62 6.65, 29.98 9.67 C31.34 12.69, 32.08 16.16, 31.08 19.2 C30.08 22.25, 26.97 26.2, 24.01 27.96 C21.05 29.72, 16.49 30, 13.32 29.76 C10.15 29.52, 7.42 28.67, 4.99 26.51 C2.56 24.35, -0.94 20.31, -1.27 16.8 C-1.59 13.28, 0.51 7.99, 3.03 5.43 C5.55 2.86, 12.19 2.12, 13.85 1.4 C15.52 0.68, 13.32 0.79, 13 1.1" stroke="none" stroke-width="0" fill="#000000"></path><path d="M17.19 1.02 C20.25 1.22, 23.36 2.99, 25.74 5.08 C28.13 7.18, 31.06 10.32, 31.5 13.57 C31.95 16.82, 30.15 21.83, 28.43 24.58 C26.71 27.33, 24.47 29.25, 21.19 30.09 C17.9 30.93, 12 30.96, 8.71 29.62 C5.42 28.28, 2.72 24.83, 1.44 22.05 C0.16 19.27, 0.31 16.07, 1.04 12.92 C1.76 9.78, 2.75 5.23, 5.79 3.2 C8.83 1.18, 16.55 0.95, 19.26 0.8 C21.97 0.64, 22.19 2.26, 22.06 2.29 M10.05 0.9 C13.27 -0.2, 18.55 -0.75, 21.69 0.69 C24.83 2.12, 27.41 6.35, 28.87 9.53 C30.33 12.7, 30.91 16.76, 30.45 19.73 C30 22.71, 28.82 25.38, 26.15 27.4 C23.49 29.42, 17.9 31.87, 14.47 31.86 C11.04 31.84, 8.21 29.5, 5.6 27.33 C2.99 25.15, -0.82 22.05, -1.19 18.82 C-1.56 15.58, 1.34 11.08, 3.38 7.92 C5.42 4.76, 9.62 1.19, 11.06 -0.14 C12.51 -1.46, 12.02 -0.58, 12.04 -0.04" stroke="#000000" stroke-width="1" fill="none"></path></g><g stroke-linecap="round" transform="translate(320.3292236328125 511.9806213378906) rotate(0 15.6695556640625 15.6695556640625)"><path d="M11.25 1.07 C14.31 0.08, 19.92 -0.04, 22.86 1.26 C25.8 2.55, 27.43 5.92, 28.89 8.83 C30.34 11.73, 32.28 15.42, 31.59 18.69 C30.9 21.96, 27.46 26.27, 24.75 28.46 C22.05 30.65, 18.7 32.13, 15.36 31.84 C12.02 31.55, 7.34 29.2, 4.7 26.71 C2.06 24.22, -0.08 20.14, -0.48 16.89 C-0.88 13.65, 0.02 10, 2.28 7.25 C4.55 4.49, 10.92 1.36, 13.09 0.35 C15.27 -0.65, 15.25 1.1, 15.32 1.22 M11.34 1.42 C14.02 0.49, 18.73 0.4, 21.69 1.63 C24.65 2.85, 27.59 5.76, 29.11 8.75 C30.62 11.75, 31.52 16.35, 30.79 19.61 C30.05 22.86, 27.68 26.45, 24.69 28.27 C21.71 30.1, 16.2 30.85, 12.89 30.55 C9.58 30.26, 6.94 28.74, 4.83 26.51 C2.73 24.27, 0.45 20.39, 0.25 17.15 C0.05 13.91, 1.78 9.69, 3.64 7.06 C5.51 4.43, 9.94 2.48, 11.45 1.39 C12.97 0.3, 12.75 0.23, 12.72 0.5" stroke="none" stroke-width="0" fill="#000000"></path><path d="M19.52 0.69 C22.54 1.19, 25.01 3.54, 27.12 6.17 C29.23 8.8, 32.17 13.3, 32.18 16.48 C32.18 19.66, 29.69 22.7, 27.18 25.26 C24.67 27.81, 20.3 31.29, 17.11 31.82 C13.93 32.35, 10.66 30.49, 8.04 28.46 C5.42 26.43, 2.54 22.61, 1.38 19.64 C0.21 16.66, -0.12 13.6, 1.05 10.61 C2.23 7.61, 5.21 3.26, 8.44 1.67 C11.68 0.07, 18.47 1.07, 20.48 1.04 C22.49 1.01, 20.61 1.42, 20.51 1.49 M17.33 -0.69 C20.67 -0.44, 24.89 1.25, 27.07 3.97 C29.24 6.68, 30.09 12.03, 30.38 15.59 C30.68 19.15, 30.88 22.96, 28.84 25.32 C26.8 27.68, 21.52 29.09, 18.16 29.75 C14.79 30.41, 11.52 30.73, 8.65 29.26 C5.78 27.79, 2.09 23.75, 0.95 20.95 C-0.2 18.15, 0.94 15.47, 1.78 12.46 C2.62 9.45, 3.36 4.87, 6 2.89 C8.64 0.91, 15.92 1.18, 17.61 0.59 C19.3 0, 16.21 -0.77, 16.12 -0.64" stroke="#000000" stroke-width="1" fill="none"></path></g><g transform="translate(608.4265747070312 163.51809692382812) rotate(0 46 18)"><text x="0" y="25" font-family="Virgil, Segoe UI Emoji" font-size="28px" fill="#000000" text-anchor="start" style="white-space: pre;" direction="ltr">Clients</text></g><g stroke-linecap="round"><g transform="translate(75.1387939453125 256.9302673339844) rotate(0 295.0672028130852 -1.735936102028944)"><path d="M1.03 1.1 C99.54 0.87, 491.84 -1.97, 590.02 -2.56 M0.11 0.64 C98.63 0.12, 491.23 -3.71, 589.52 -4.58" stroke="#000000" stroke-width="1" fill="none"></path></g><g transform="translate(75.1387939453125 256.9302673339844) rotate(0 295.0672028130852 -1.735936102028944)"><path d="M563.27 7.38 C567.9 5.09, 574.18 1.52, 587.53 -5.05 M560.66 5.69 C572.32 2.87, 581.14 -1.24, 589.51 -3.61" stroke="#000000" stroke-width="1" fill="none"></path></g><g transform="translate(75.1387939453125 256.9302673339844) rotate(0 295.0672028130852 -1.735936102028944)"><path d="M563.08 -13.14 C567.55 -11.03, 573.88 -10.19, 587.53 -5.05 M560.47 -14.83 C572.34 -10.32, 581.23 -7.1, 589.51 -3.61" stroke="#000000" stroke-width="1" fill="none"></path></g></g><g stroke-linecap="round"><g transform="translate(72.8399658203125 404.9870300292969) rotate(0 294.030832495913 -1.0133526729606501)"><path d="M-0.72 -0.68 C97.24 -1.12, 490.46 -3.27, 588.78 -3.6 M1.1 1.58 C98.78 1.35, 489.74 -2.03, 587.64 -2.51" stroke="#000000" stroke-width="1" fill="none"></path></g><g transform="translate(72.8399658203125 404.9870300292969) rotate(0 294.030832495913 -1.0133526729606501)"><path d="M558.38 7.32 C568.99 4.18, 581.34 -0.06, 588.69 -2.46 M558.73 7.74 C569.35 4.27, 577.86 0.34, 588.02 -2.25" stroke="#000000" stroke-width="1" fill="none"></path></g><g transform="translate(72.8399658203125 404.9870300292969) rotate(0 294.030832495913 -1.0133526729606501)"><path d="M558.24 -13.2 C568.73 -8.46, 581.14 -4.83, 588.69 -2.46 M558.59 -12.78 C569.11 -9.55, 577.67 -6.78, 588.02 -2.25" stroke="#000000" stroke-width="1" fill="none"></path></g></g><g stroke-linecap="round"><g transform="translate(655.2485961914062 293.9193420410156) rotate(0 -289.6907256739773 -1.1776979532092753)"><path d="M0.26 0.39 C-96.27 -0.09, -482.01 -2.51, -578.51 -2.75 M-1.07 -0.45 C-97.84 -0.82, -483.18 -1.3, -579.64 -1.72" stroke="#000000" stroke-width="1" fill="none"></path></g><g transform="translate(655.2485961914062 293.9193420410156) rotate(0 -289.6907256739773 -1.1776979532092753)"><path d="M-550.77 -12.49 C-563.04 -9.19, -570.14 -3.75, -580.78 -0.56 M-551.84 -11.17 C-559.09 -10.05, -565.89 -6.5, -578.9 -0.9" stroke="#000000" stroke-width="1" fill="none"></path></g><g transform="translate(655.2485961914062 293.9193420410156) rotate(0 -289.6907256739773 -1.1776979532092753)"><path d="M-550.82 8.03 C-563.1 4.05, -570.18 2.21, -580.78 -0.56 M-551.9 9.35 C-559.04 5.35, -565.83 3.77, -578.9 -0.9" stroke="#000000" stroke-width="1" fill="none"></path></g></g><g stroke-linecap="round"><g transform="translate(653.9108276367188 489.0679016113281) rotate(0 -289.1739543391951 -1.5412079245876384)"><path d="M-0.49 -0.23 C-96.91 -0.45, -482.3 -0.75, -578.62 -1.09 M1.46 -1.4 C-95.15 -1.99, -483.02 -2.88, -579.81 -2.85" stroke="#000000" stroke-width="1" fill="none"></path></g><g transform="translate(653.9108276367188 489.0679016113281) rotate(0 -289.1739543391951 -1.5412079245876384)"><path d="M-552 -13.85 C-558.69 -10.56, -568.88 -6.96, -578.65 -2.95 M-550.97 -13.99 C-562.13 -9.18, -574.21 -5.7, -579.49 -2.07" stroke="#000000" stroke-width="1" fill="none"></path></g><g transform="translate(653.9108276367188 489.0679016113281) rotate(0 -289.1739543391951 -1.5412079245876384)"><path d="M-552.02 6.68 C-558.74 3.96, -568.93 1.57, -578.65 -2.95 M-550.99 6.53 C-562.27 3.34, -574.33 -1.18, -579.49 -2.07" stroke="#000000" stroke-width="1" fill="none"></path></g></g><g stroke-linecap="round"><g transform="translate(662.2693481445312 258.52618408203125) rotate(0 -0.3655109607615259 20.439446912053967)"><path d="M0.51 0.67 C0.48 7.31, -0.22 34.11, -0.61 40.91 M-0.69 -0.03 C-0.78 6.76, -0.86 32.37, -1.24 38.97" stroke="#000000" stroke-width="1" fill="none"></path></g><g transform="translate(662.2693481445312 258.52618408203125) rotate(0 -0.3655109607615259 20.439446912053967)"><path d="M-6.55 20.76 C-5.2 23.73, -2.56 30.94, -1.1 38.37 M-8.21 20.53 C-6.12 25.82, -3.66 31.01, -1.29 39.51" stroke="#000000" stroke-width="1" fill="none"></path></g><g transform="translate(662.2693481445312 258.52618408203125) rotate(0 -0.3655109607615259 20.439446912053967)"><path d="M7.32 21.12 C5.01 24.06, 3.99 31.18, -1.1 38.37 M5.66 20.9 C3.42 26.08, 1.55 31.16, -1.29 39.51" stroke="#000000" stroke-width="1" fill="none"></path></g></g><g stroke-linecap="round"><g transform="translate(662.4505004882812 408.2064514160156) rotate(0 -0.0032726479042821666 40.782661483157426)"><path d="M1.08 0.41 C0.88 13.78, 0.05 67.22, -0.09 80.62 M0.19 -0.43 C-0.27 13.09, -0.98 68.25, -1.09 81.99" stroke="#000000" stroke-width="1" fill="none"></path></g><g transform="translate(662.4505004882812 408.2064514160156) rotate(0 -0.0032726479042821666 40.782661483157426)"><path d="M-10.36 53.54 C-7.59 65.03, -3.4 77.12, -1.07 83.38 M-10.12 53.77 C-8.27 63.42, -4.4 72.04, -1.8 82.38" stroke="#000000" stroke-width="1" fill="none"></path></g><g transform="translate(662.4505004882812 408.2064514160156) rotate(0 -0.0032726479042821666 40.782661483157426)"><path d="M10.16 53.76 C4.9 65.35, 1.06 77.35, -1.07 83.38 M10.4 53.99 C5.54 63.54, 2.69 72.09, -1.8 82.38" stroke="#000000" stroke-width="1" fill="none"></path></g></g></svg>